# xmcd CD database file generated by Grip 3.2.0
# 
# Track frame offsets:
#       150
#       16758
#       29109
#       45584
#       61663
#       72281
#       91711
#       105848
#       128174
#       142954
#       167294
#       178233
#       192036
#       208469
# 
# Disc length: 3581 seconds
# 
# Revision: 1
# Processed by: cddbd v1.5.2PL0 Copyright (c) Steve Scherf et al.
# Submitted via: Grip 3.2.0
# 
DISCID=b40dfb0e
DTITLE=Seasick Steve - I Started Out With Nothin And I Still Got Most Of It L
DTITLE=eft [CD1]
DYEAR=2008
DGENRE=Blues
TTITLE0=Started Out With Nothin
TTITLE1=Walkin Man
TTITLE2=St. Louis Slim
TTITLE3=Happy Man
TTITLE4=Prospect Lane
TTITLE5=Thunderbird
TTITLE6=Fly By Night
TTITLE7=Just Like A King
TTITLE8=One True
TTITLE9=Chiggers
TTITLE10=My Youth
TTITLE11=The Letter
TTITLE12=Levy Camp Blues
TTITLE13=Roll And Tumble Blues
EXTD=
EXTT0=
EXTT1=
EXTT2=
EXTT3=
EXTT4=
EXTT5=
EXTT6=
EXTT7=
EXTT8=
EXTT9=
EXTT10=
EXTT11=
EXTT12=
EXTT13=
PLAYORDER=
